# xmcd
#
# Track frame offsets: 
#        150
#        18115
#        40987
#        72092
#        91760
#        127295
#        168527
#        188572
#        214475
#        238942
#
# Disc length: 3466 seconds
#
# Revision: 0
# Processed by: cddbd v1.5.2PL0 Copyright (c) Steve Scherf et al.
# Submitted via: ExactAudioCopy v0.95a4
#
DISCID=8b0d880a
DTITLE=Gary Moore - Mannheim Germany 6-21-86
DYEAR=1986
DGENRE=Blues
TTITLE0=Run for Cover
TTITLE1=Murder in the Skies
TTITLE2=Shapes of Things
TTITLE3=Wild Frontier
TTITLE4=Intro > Victims of the Future
TTITLE5=So Far Away > Empty Rooms
TTITLE6=Out in the Fields
TTITLE7=All Messed Up
TTITLE8=Rockin' Every Night
TTITLE9=Wishing Well
EXTD=
EXTT0=
EXTT1=
EXTT2=
EXTT3=
EXTT4=
EXTT5=
EXTT6=
EXTT7=
EXTT8=
EXTT9=
PLAYORDER=
